<svg width="200" height="200" viewBox="0 0 200 200" xmlns="http://www.w3.org/2000/svg">
  <defs>
    <!-- Gradiente para el fondo -->
    <radialGradient id="bgGradient" cx="50%" cy="50%" r="50%">
      <stop offset="0%" style="stop-color:#8B4513;stop-opacity:1" />
      <stop offset="100%" style="stop-color:#654321;stop-opacity:1" />
    </radialGradient>
    
    <!-- Gradiente para el halo -->
    <radialGradient id="haloGradient" cx="50%" cy="50%" r="50%">
      <stop offset="0%" style="stop-color:#FFD700;stop-opacity:1" />
      <stop offset="100%" style="stop-color:#FFA500;stop-opacity:1" />
    </radialGradient>
    
    <!-- Gradiente para la piel -->
    <linearGradient id="skinGradient" x1="0%" y1="0%" x2="100%" y2="100%">
      <stop offset="0%" style="stop-color:#F4A460;stop-opacity:1" />
      <stop offset="50%" style="stop-color:#DEB887;stop-opacity:1" />
      <stop offset="100%" style="stop-color:#CD853F;stop-opacity:1" />
    </linearGradient>
    
    <!-- Gradiente para la túnica -->
    <linearGradient id="robeGradient" x1="0%" y1="0%" x2="100%" y2="100%">
      <stop offset="0%" style="stop-color:#8B0000;stop-opacity:1" />
      <stop offset="50%" style="stop-color:#A52A2A;stop-opacity:1" />
      <stop offset="100%" style="stop-color:#800000;stop-opacity:1" />
    </linearGradient>
  </defs>
  
  <!-- Fondo circular -->
  <circle cx="100" cy="100" r="90" fill="url(#bgGradient)"/>
  
  <!-- Halo -->
  <circle cx="100" cy="60" r="25" fill="url(#haloGradient)" opacity="0.8"/>
  
  <!-- Cabeza -->
  <circle cx="100" cy="100" r="35" fill="url(#skinGradient)"/>
  
  <!-- Barba -->
  <ellipse cx="100" cy="120" rx="25" ry="15" fill="#654321"/>
  
  <!-- Bigote -->
  <ellipse cx="100" cy="110" rx="20" ry="8" fill="#654321"/>
  
  <!-- Ojos -->
  <circle cx="90" cy="95" r="3" fill="#000000"/>
  <circle cx="110" cy="95" r="3" fill="#000000"/>
  
  <!-- Pupilas -->
  <circle cx="90" cy="95" r="1" fill="#FFFFFF"/>
  <circle cx="110" cy="95" r="1" fill="#FFFFFF"/>
  
  <!-- Nariz -->
  <ellipse cx="100" cy="105" rx="3" ry="5" fill="url(#skinGradient)"/>
  
  <!-- Boca -->
  <ellipse cx="100" cy="115" rx="8" ry="3" fill="#8B0000"/>
  
  <!-- Túnica -->
  <ellipse cx="100" cy="160" rx="40" ry="25" fill="url(#robeGradient)"/>
  
  <!-- Brazos -->
  <ellipse cx="70" cy="140" rx="8" ry="20" fill="url(#skinGradient)"/>
  <ellipse cx="130" cy="140" rx="8" ry="20" fill="url(#skinGradient)"/>
  
  <!-- Manos -->
  <circle cx="70" cy="160" r="6" fill="url(#skinGradient)"/>
  <circle cx="130" cy="160" r="6" fill="url(#skinGradient)"/>
  
  <!-- Cruz en la túnica -->
  <g stroke="#FFD700" stroke-width="3" fill="none">
    <line x1="95" y1="150" x2="95" y2="170"/>
    <line x1="90" y1="160" x2="100" y2="160"/>
  </g>
  
  <!-- Detalles del halo -->
  <circle cx="100" cy="60" r="20" fill="none" stroke="#FFD700" stroke-width="2" opacity="0.6"/>
  <circle cx="100" cy="60" r="15" fill="none" stroke="#FFD700" stroke-width="1" opacity="0.4"/>
</svg>
